<svg width="150" height="24" viewBox="0 0 150 24" fill="none" xmlns="http://www.w3.org/2000/svg">
<g clip-path="url(#clip0_1_24)">
<path d="M2.47565 17.5059V10.9474H0V6.65605H2.47565V2.48615H7.91396V6.65605H11.3636V10.9069H7.91396V16.6962C7.91396 17.4654 8.36039 18.3966 9.9026 18.3966C10.2679 18.3966 10.8766 18.3156 11.4448 18.1537V22.2831C10.836 22.9713 9.33442 23.1737 8.11688 23.1737C4.82955 23.1737 2.47565 21.5948 2.47565 17.5059Z" fill="#13A54A"/>
<path d="M13.5146 0.704819H18.9529V5.36054H13.5146V0.704819ZM13.5146 6.65604H18.9529V22.9713H13.5146V6.65604Z" fill="#13A54A"/>
<path d="M27.151 0.704819V8.19445H27.2321C27.3539 7.91106 28.8961 6.33217 31.7776 6.33217C35.4302 6.33217 39.5292 9.08511 39.5292 14.7934C39.5292 20.5017 35.4302 23.2952 31.7776 23.2952C28.8961 23.2952 27.3945 21.7163 27.2321 21.4329H27.151V22.9713H21.7127V0.704819H27.151ZM30.6412 18.4775C32.5081 18.4775 34.2127 17.101 34.2127 14.7934C34.2127 12.4858 32.5487 11.1093 30.6412 11.1093C28.6932 11.1093 27.0698 12.4453 27.0698 14.7934C27.0698 17.1415 28.6932 18.4775 30.6412 18.4775Z" fill="#13A54A"/>
<path d="M46.9562 0.704819V8.19445H47.0373C47.1591 7.91106 48.7013 6.33217 51.5828 6.33217C55.2354 6.33217 59.3344 9.08511 59.3344 14.7934C59.3344 20.5017 55.2354 23.2547 51.5828 23.2547C48.7013 23.2547 47.1997 21.6758 47.0373 21.3924H46.9562V22.9713H41.5179V0.704819H46.9562ZM50.4058 18.4775C52.2727 18.4775 53.9773 17.101 53.9773 14.7934C53.9773 12.4858 52.3133 11.1093 50.4058 11.1093C48.4578 11.1093 46.8344 12.4453 46.8344 14.7934C46.8344 17.1415 48.4578 18.4775 50.4058 18.4775Z" fill="#13A54A"/>
<path d="M60.5114 14.8339C60.5114 9.28754 64.9351 6.37265 69.237 6.37265C73.4984 6.37265 77.9627 9.28754 77.9627 14.8339C77.9627 20.3803 73.539 23.2952 69.237 23.2952C64.9351 23.2952 60.5114 20.3803 60.5114 14.8339Z" fill="#0EA395"/>
<path d="M79.9513 6.65604H85.3896V8.55882C86.3231 7.22283 87.8653 6.33217 90.0568 6.33217C93.3442 6.33217 96.1445 8.35639 96.1445 13.3765V22.9713H90.7062V14.3076C90.7062 12.6073 89.8945 11.1498 88.0276 11.1498C86.2013 11.1498 85.4302 12.6073 85.4302 14.3076V22.9713H79.9513V6.65604Z" fill="#0EA395"/>
<path d="M98.8636 0.704819H104.302V22.9713H98.8636V0.704819Z" fill="#0EA395"/>
<path d="M107.062 0.704819H112.5V5.36054H107.062V0.704819ZM107.062 6.65604H112.5V22.9713H107.062V6.65604Z" fill="#0EA395"/>
<path d="M115.3 6.65604H120.739V8.55882C121.672 7.22283 123.214 6.33217 125.406 6.33217C128.693 6.33217 131.494 8.35639 131.494 13.3765V22.9713H126.055V14.3076C126.055 12.6073 125.244 11.1498 123.377 11.1498C121.55 11.1498 120.779 12.6073 120.779 14.3076V22.9713H115.341V6.65604H115.3Z" fill="#0EA395"/>
<path d="M133.442 14.8339C133.442 9.32802 137.581 6.33217 141.843 6.33217C145.982 6.33217 150.974 9.20657 149.878 16.8986H138.758C139.407 18.2346 140.828 18.8824 142.735 18.8824C144.075 18.8824 145.252 18.6395 146.429 17.8298L148.823 20.3803C147.484 22.0402 145.211 23.2952 142.127 23.2952C137.541 23.2952 133.442 20.2184 133.442 14.8339ZM145.089 13.0931C144.724 11.5547 143.304 10.8664 141.924 10.8664C140.544 10.8664 139.164 11.5547 138.596 13.0931H145.089Z" fill="#0EA395"/>
<path d="M69.3588 12.3644C69.4399 12.2834 69.5211 12.1619 69.6023 12.081C70.0893 11.5142 70.7386 11.1903 71.4692 11.0689C72.7273 10.9069 73.9448 11.5952 74.4318 12.7692C74.8377 13.7813 74.7159 14.753 74.1883 15.7246C73.7419 16.5343 73.0925 17.2225 72.4026 17.8298C71.6721 18.4775 70.901 19.0848 70.0487 19.6111C69.5617 19.935 69.0341 19.935 68.5471 19.6111C67.4107 18.8824 66.3149 18.0322 65.3815 17.0201C64.8539 16.4533 64.4075 15.846 64.1234 15.1173C63.6364 13.8623 64.0016 12.4453 65.0162 11.6356C66.0308 10.826 67.4107 10.7855 68.4659 11.5547C68.75 11.7571 68.9529 12 69.1964 12.2429C69.2776 12.3239 69.3182 12.3239 69.3588 12.3644Z" fill="white"/>
</g>
<defs>
<clipPath id="clip0_1_24">
<rect width="150" height="22.5904" fill="white" transform="translate(0 0.704819)"/>
</clipPath>
</defs>
</svg>
